<mxfile host="app.diagrams.net" agent="Mozilla/5.0 (Windows NT 10.0; Win64; x64) AppleWebKit/537.36 (KHTML, like Gecko) Chrome/129.0.0.0 Safari/537.36" version="24.7.17">
  <diagram name="PÃ¡gina-1" id="_rl-PPzbTEEVszfu2lPN">
    <mxGraphModel dx="1434" dy="772" grid="1" gridSize="10" guides="1" tooltips="1" connect="1" arrows="1" fold="1" page="1" pageScale="1" pageWidth="827" pageHeight="1169" math="0" shadow="0">
      <root>
        <mxCell id="0" />
        <mxCell id="1" parent="0" />
        <mxCell id="XP3yPTSHwAlScOPMTmX8-15" value="" style="edgeStyle=orthogonalEdgeStyle;rounded=0;orthogonalLoop=1;jettySize=auto;html=1;" edge="1" parent="1" source="XP3yPTSHwAlScOPMTmX8-1" target="XP3yPTSHwAlScOPMTmX8-13">
          <mxGeometry relative="1" as="geometry" />
        </mxCell>
        <mxCell id="XP3yPTSHwAlScOPMTmX8-1" value="Client" style="shape=umlActor;verticalLabelPosition=bottom;verticalAlign=top;html=1;outlineConnect=0;" vertex="1" parent="1">
          <mxGeometry x="60" y="390" width="30" height="60" as="geometry" />
        </mxCell>
        <mxCell id="XP3yPTSHwAlScOPMTmX8-13" value="Reverse Proxy" style="ellipse;whiteSpace=wrap;html=1;" vertex="1" parent="1">
          <mxGeometry x="280" y="380" width="120" height="80" as="geometry" />
        </mxCell>
      </root>
    </mxGraphModel>
  </diagram>
</mxfile>
